<svg id="visual" viewBox="0 0 900 600" width="900" height="600" xmlns="http://www.w3.org/2000/svg" xmlns:xlink="http://www.w3.org/1999/xlink" version="1.1"><rect x="0" y="0" width="900" height="600" fill="#001220"></rect><path d="M0 363L21.5 377C43 391 86 419 128.8 423.7C171.7 428.3 214.3 409.7 257.2 409.7C300 409.7 343 428.3 385.8 429.3C428.7 430.3 471.3 413.7 514.2 398.3C557 383 600 369 642.8 377C685.7 385 728.3 415 771.2 429.7C814 444.3 857 443.7 878.5 443.3L900 443L900 601L878.5 601C857 601 814 601 771.2 601C728.3 601 685.7 601 642.8 601C600 601 557 601 514.2 601C471.3 601 428.7 601 385.8 601C343 601 300 601 257.2 601C214.3 601 171.7 601 128.8 601C86 601 43 601 21.5 601L0 601Z" fill="#fa7268"></path><path d="M0 409L21.5 419.5C43 430 86 451 128.8 458.5C171.7 466 214.3 460 257.2 459.3C300 458.7 343 463.3 385.8 466.2C428.7 469 471.3 470 514.2 471.8C557 473.7 600 476.3 642.8 469.8C685.7 463.3 728.3 447.7 771.2 439C814 430.3 857 428.7 878.5 427.8L900 427L900 601L878.5 601C857 601 814 601 771.2 601C728.3 601 685.7 601 642.8 601C600 601 557 601 514.2 601C471.3 601 428.7 601 385.8 601C343 601 300 601 257.2 601C214.3 601 171.7 601 128.8 601C86 601 43 601 21.5 601L0 601Z" fill="#ef5f67"></path><path d="M0 461L21.5 465.8C43 470.7 86 480.3 128.8 478.5C171.7 476.7 214.3 463.3 257.2 465.2C300 467 343 484 385.8 489.2C428.7 494.3 471.3 487.7 514.2 481.5C557 475.3 600 469.7 642.8 463.2C685.7 456.7 728.3 449.3 771.2 455.2C814 461 857 480 878.5 489.5L900 499L900 601L878.5 601C857 601 814 601 771.2 601C728.3 601 685.7 601 642.8 601C600 601 557 601 514.2 601C471.3 601 428.7 601 385.8 601C343 601 300 601 257.2 601C214.3 601 171.7 601 128.8 601C86 601 43 601 21.5 601L0 601Z" fill="#e34c67"></path><path d="M0 511L21.5 510C43 509 86 507 128.8 511.2C171.7 515.3 214.3 525.7 257.2 525.8C300 526 343 516 385.8 513.2C428.7 510.3 471.3 514.7 514.2 513.7C557 512.7 600 506.3 642.8 505C685.7 503.7 728.3 507.3 771.2 513.8C814 520.3 857 529.7 878.5 534.3L900 539L900 601L878.5 601C857 601 814 601 771.2 601C728.3 601 685.7 601 642.8 601C600 601 557 601 514.2 601C471.3 601 428.7 601 385.8 601C343 601 300 601 257.2 601C214.3 601 171.7 601 128.8 601C86 601 43 601 21.5 601L0 601Z" fill="#d53867"></path><path d="M0 554L21.5 552C43 550 86 546 128.8 546.7C171.7 547.3 214.3 552.7 257.2 554.3C300 556 343 554 385.8 555.5C428.7 557 471.3 562 514.2 558.2C557 554.3 600 541.7 642.8 538.8C685.7 536 728.3 543 771.2 542.8C814 542.7 857 535.3 878.5 531.7L900 528L900 601L878.5 601C857 601 814 601 771.2 601C728.3 601 685.7 601 642.8 601C600 601 557 601 514.2 601C471.3 601 428.7 601 385.8 601C343 601 300 601 257.2 601C214.3 601 171.7 601 128.8 601C86 601 43 601 21.5 601L0 601Z" fill="#c62368"></path></svg>